<?xml version="1.0" encoding="UTF-8" standalone="no"?>
<svg id="svg4490" xmlns:rdf="http://www.w3.org/1999/02/22-rdf-syntax-ns#" xmlns="http://www.w3.org/2000/svg" height="21.999" viewBox="0 0 1200 1311" width="22" version="1.1" xmlns:cc="http://creativecommons.org/ns#" xmlns:dc="http://purl.org/dc/elements/1.1/">
<path id="path4500" d="m682.12 1302.2c-2.1539-1.7937-2.7236-3.4266-21.019-60.25-5.047-15.675-10.001-30.75-11.008-33.5-4.9062-13.39-8.7061-26.242-8.179-27.663 0.62299-1.6799 7.2756-9.6859 13.086-15.749 1.925-2.0085 8.0311-8.5874 13.569-14.62 5.538-6.0324 17.913-19.48 27.5-29.885 9.587-10.404 20.13-21.879 23.428-25.5 3.2986-3.6209 7.9111-8.5315 10.25-10.912 2.3389-2.381 4.2526-4.8951 4.2526-5.5869 0-1.2287-58.536-2.5842-111.6-2.5842-10.049 0-19.364-0.4155-20.699-0.9234-2.8113-1.0689-2.2229 0.2035-9.7475-21.077-3.2089-9.075-7.0112-19.65-8.4495-23.5s-3.908-10.825-5.4882-15.5c-8.6685-25.645-14.124-40.53-15.249-41.608-1.322-1.2665-1.9556-0.88595-39.767 23.885-43.41 28.438-35.152 28.331-59.164 0.76678-7.8845-9.0508-25.258-28.961-38.608-44.244-26.042-29.815-27.061-31.287-24.74-35.774 0.8141-1.5743 2.4474-5.4865 3.6296-8.6938s2.4814-6.2814 2.8872-6.8314c0.40579-0.55 5.5476-12.25 11.426-26 5.8786-13.75 11.728-27.25 12.998-30 1.2701-2.75 5.3643-12.2 9.0981-21s8.5609-19.686 10.727-24.191c5.5009-11.441 4.6051-12.363-6.6963-6.8947-3.8811 1.878-9.7566 4.5272-13.057 5.8872-3.3 1.36-14.775 6.2944-25.5 10.965-10.725 4.671-26.475 11.503-35 15.182-8.525 3.6789-16.85 7.2866-18.5 8.0171-30.105 13.329-25.99 13.64-42.408-3.2071-7.3746-7.5673-29.171-29.851-48.437-49.52-44.682-45.616-41.405-39.929-30.799-53.454 3.6543-4.6597 8.4442-10.852 10.644-13.761 6.7964-8.9862 20.942-27.409 31.501-41.024 30.871-39.809 29.424-35.746 15.499-43.54-5.5-3.0782-17.425-9.8105-26.5-14.961-9.075-5.1501-18.525-10.45-21-11.778-2.475-1.3278-4.95-2.7554-5.5-3.1726-0.55-0.41715-4.15-2.4602-8-4.54-20.782-11.227-26.797-15.601-25.14-18.282 0.29263-0.4735 0.99543-4.4308 1.5618-8.794 0.56633-4.3632 2.8477-20.083 5.0697-34.933s5.1504-34.65 6.5076-44c1.3571-9.35 2.706-18.575 2.9974-20.5 0.29144-1.925 1.4547-10.025 2.5851-18 1.1303-7.975 2.7539-19 3.608-24.5 2.8451-18.322 2.6504-18.484-9.3776-7.795-4.8464 4.3068-12.365 10.748-16.708 14.313-4.343 3.5652-11.587 9.6322-16.099 13.482-4.5113 3.85-14.87 12.625-23.02 19.5-8.1498 6.875-22.73 19.21-32.401 27.41-9.6708 8.2008-19.971 16.92-22.889 19.375-6.7192 5.6539-8.5087 5.6102-16.818-0.41046-3.705-2.7-8.613-6.24-10.913-7.89-53.803-38.61-68.574-49.64-69.66-52.03-0.7056-1.54-0.042-4.23 2.7145-11.01 2.0065-4.93 6.0275-15.04 8.9365-22.46 2.9083-7.425 15.085-37.8 27.06-67.5s22.563-56.25 23.53-59c0.96654-2.75 3.1817-8.375 4.9226-12.5s3.9855-9.7897 4.988-12.588c1.0025-2.7985 2.2873-5.9485 2.8552-7 0.567-1.05 2.903-6.63 5.19-12.41 18.526-46.78 26.126-65.41 27.096-66.45 0.5-0.52 0.9-1.58 0.9-2.36 0-0.77328 2.8945-8.4458 6.4322-17.05s8.0848-19.919 10.105-25.144c2.0198-5.225 5.3598-13.55 7.4222-18.5 2.0625-4.95 5.6644-13.95 8.0044-20s4.8469-12.35 5.571-14c0.72407-1.65 5.8014-14.25 11.283-28 5.4815-13.75 11.636-29.05 13.676-34 2.0405-4.95 4.1344-10.459 4.653-12.242 1.7535-6.0283 4.0077-5.4998 22.984 5.3889 9.4443 5.4193 19.016 10.911 21.271 12.204 2.2545 1.293 5.899 3.3037 8.099 4.4683 2.2 1.1645 4.675 2.6305 5.5 3.2576 0.825 0.62713 4.425 2.7307 8 4.6745 3.575 1.9439 11 6.1212 16.5 9.2829s15.847 9.0895 22.994 13.173c18.888 10.792 18.253 9.7603 13.573 22.075-1.6131 4.2448-4.5722 12.218-6.5758 17.718s-5.3674 14.725-7.4752 20.5-6.8643 18.825-10.57 29c-3.7056 10.175-8.4253 23-10.488 28.5-2.0629 5.5-7.2111 19.45-11.44 31-7.2406 19.773-11.244 30.409-13.828 36.736-2.3648 5.7905 0.48633 5.2071 11.917-2.4383 13.088-8.7535 42.526-27.676 47.135-30.298 0.96688-0.55 4.233-2.6192 7.258-4.5983s18.325-11.603 34-21.386c15.675-9.7831 30.617-19.11 33.205-20.727 2.6302-1.6433 5.7171-2.7962 7-2.6143l2.32 0.33v24.5c0 25.146-1.0035 90.019-2.1539 139.25-0.67669 28.957-0.41258 30.922 3.3592 25 2.338-3.6711 9.9796-13.658 19.23-25.132 4.1603-5.1603 9.1392-11.529 11.064-14.152 3.2012-4.3623 10.76-13.766 12.029-14.966 0.29101-0.275 4.116-5.1761 8.5-10.891 4.384-5.7153 10.008-12.915 12.498-16 2.49-3.0847 8.7795-11.009 13.977-17.609 5.1972-6.6 9.9949-12.675 10.661-13.5 0.66655-0.825 2.9954-3.75 5.1753-6.5 31.441-39.664 30.317-38.504 34.985-36.09 1.5638 0.80867 5.2754 3.4098 8.2479 5.7804 5.2356 4.1752 9.6432 7.596 45.497 35.31 9.2501 7.15 20.443 15.825 24.874 19.278 4.4306 3.4528 12.013 9.2567 16.849 12.897 12.219 9.1983 12.565 10.024 6.9562 16.6-2.0625 2.4181-8.475 10.159-14.25 17.203-5.775 7.0434-10.965 13.305-11.534 13.914-5.33 5.71-21.47 25.99-21.47 26.98 0 1.0578 50.604 45.475 64.327 56.463 14.546 11.646 17.736 16.228 14.098 20.248-1.7039 1.8828-18.887 24.392-47.647 62.417-9.9838 13.2-21.556 28.356-25.715 33.681-4.1595 5.3244-10.038 13.013-13.063 17.086-3.025 4.0728-10.225 13.568-16 21.1-5.775 7.5322-12.975 16.986-16 21.008-9.935 13.21-17.481 23.117-17.995 23.626-0.2779 0.275-2.1425 2.525-4.1436 5s-4.5886 5.5814-5.75 6.903c-4.0376 4.5946-1.1491 4.9848 9.8884 1.3356 4.125-1.3638 8.85-2.8371 10.5-3.274 2.9459-0.78002 26.352-7.6703 54-15.896 7.7-2.291 17.15-5.0803 21-6.1985s9.7-2.8582 13-3.8667 10.05-3.034 15-4.5011 10.35-3.0844 12-3.594c49.627-15.327 46.277-18.599 29.999 29.299-6.9708 20.511-13.042 38.643-13.493 40.293-0.45011 1.65-6.9636 21-14.474 43-7.5108 22-14.799 43.6-16.196 48-1.3969 4.4-3.4598 10.162-4.5842 12.804-2.1642 5.0854-1.3048 8.3323 1.6342 6.1738 4.4852-3.2941 16.456-11.433 20.559-13.978 2.6604-1.65 8.2938-5.25 12.519-8 4.2248-2.75 13.386-8.6772 20.359-13.172 13.309-8.5788 38.616-24.965 53.118-34.394 4.7077-3.0609 13.437-8.6859 19.398-12.5s11.37-7.4262 12.021-8.0268c0.6503-0.60064 2.2981-1.6868 3.6617-2.4137 2.3482-1.2517 12.583-7.7973 30.479-19.494 33.406-21.833 38.825-24.932 41.282-23.617 0.9704 0.51935 5.3163 8.7455 9.6575 18.28 4.3412 9.5348 9.2537 20.261 10.917 23.836 1.663 3.575 8.0479 17.506 14.189 30.957 13.561 29.707 11.382 28.074 25.247 18.918 6.1436-4.0567 14.441-9.453 18.439-11.992 3.9978-2.5388 12.444-7.9753 18.769-12.081s20.5-13.226 31.5-20.268c11-7.0416 23.3-14.993 27.334-17.669 8.57-5.6864 15.166-5.9615 15.166-0.63249 0 0.31688 3.1976 7.2564 7.1057 15.421 3.9081 8.1648 9.7112 20.47 12.896 27.345 3.1845 6.875 8.59 18.35 12.012 25.5 3.4222 7.15 7.4787 15.7 9.0143 19s7.1075 15.197 12.382 26.437c12.171 25.939 12.597 22.827-4.66 34.077-7.8375 5.1094-21.534 14.059-30.436 19.888-8.902 5.8288-23.894 15.548-33.316 21.598-9.4216 6.05-21.263 13.653-26.315 16.896-5.0514 3.2428-13.459 8.6798-18.684 12.082-5.225 3.4023-14.225 9.224-20 12.937-26.154 16.815-37.497 24.135-51 32.909-7.975 5.182-15.934 10.151-17.687 11.042-6.5814 3.3458-5.1094 5.5914 3.6866 5.6239 3.025 0.0112 12.925 0.67399 22 1.4729s25.5 2.1345 36.5 2.968 30.8 2.447 44 3.5855 28.725 2.4697 34.5 2.9581c28.865 2.4414 29 2.4673 29 5.572 0 1.1422-21.974 29.083-34.96 44.454-2.5558 3.025-5.5228 6.6874-6.5934 8.1387-1.9128 2.593-28.174 35.034-39.947 49.347-10.563 12.842-29.845 36.593-34.83 42.902-2.6564 3.3618-5.9681 7.3133-7.3592 8.7811-2.5934 2.7363-2.3264 5.435 0.4329 4.3761 1.3626-0.5229 64.415-13.48 82.756-17.007 3.85-0.7403 12.85-2.5687 20-4.0633 7.15-1.4945 15.025-3.0754 17.5-3.5131s7.875-1.5278 12-2.4225 14.025-2.9387 22-4.5424c7.975-1.6036 26.875-5.4363 42-8.517 54.219-11.044 50.629-10.969 53.337-1.1063 0.7742 2.8197 2.3737 8.7268 3.5545 13.127 1.1808 4.4 4.4106 16.325 7.1773 26.5 2.7666 10.175 7.031 25.925 9.4762 35 2.4453 9.075 5.2983 19.425 6.34 23s2.8947 10.325 4.1178 15 3.2367 12.1 4.4746 16.5c7.7026 27.378 9.0817 33.343 7.9636 34.445-0.5177 0.5102-13.991 2.747-29.941 4.9705-39.726 5.5381-38.079 5.3034-74 10.548-17.6 2.5695-35.15 5.0719-39 5.561s-20.95 2.9439-38 5.455-34.6 5.0195-39 5.5742-10.475 1.4211-13.5 1.9253-8.875 1.3807-13 1.9479-12.225 1.7174-18 2.556-23.325 3.3214-39 5.5173-33 4.6557-38.5 5.4661c-10.817 1.594-18.696 2.7106-57 8.0779-13.75 1.9267-27.7 3.9374-31 4.4683-3.3 0.531-19.275 2.7716-35.5 4.9791-16.225 2.2076-32.237 4.4627-35.582 5.0112-7.8844 1.293-7.8375 1.2964-10.298-0.7526zm39.88-34.2c7.425-1.1013 24.75-3.5811 38.5-5.5108 23.572-3.308 30.083-4.2338 57-8.1053 6.05-0.8702 13.925-1.9743 17.5-2.4537 10.368-1.3903 47.926-6.8542 54.5-7.9287 3.3-0.5394 16.125-2.3478 28.5-4.0188 12.375-1.6709 28.35-3.9272 35.5-5.0139 11.079-1.6839 35.888-5.2154 81-11.53 5.5-0.7699 17.65-2.556 27-3.9691 27.412-4.1431 67.435-9.7602 81.73-11.47 6.7251-0.8047 11.77-2.2822 11.77-3.4469 0-0.1978-0.8755-3.2194-1.9455-6.7149-2.5794-8.4262-20.396-74.23-25.276-93.355-2.896-11.35-1.3485-10.922-23.278-6.4289-10.45 2.1412-29.125 5.9555-41.5 8.4762s-29.7 6.0863-38.5 7.9235c-23.151 4.8331-32.035 6.5921-40.577 8.0338-4.1671 0.7034-10.692 1.9797-14.5 2.8363-3.8079 0.8565-10.298 2.2491-14.423 3.0946-14.14 2.8981-31.501 6.407-34 6.8721-1.375 0.2559-16.225 3.2784-33 6.7168s-32.75 6.6035-35.5 7.0336-8.375 1.5601-12.5 2.5112c-19.912 4.5909-19.624 3.5591 8.5-30.417 4.4-5.3157 9.125-11.084 10.5-12.818 1.375-1.7341 5.9332-7.3562 10.129-12.494 15.311-18.745 46.48-57.174 60.26-74.296 4.8891-6.0748 11.414-14.069 14.5-17.765 3.0859-3.696 7.8608-9.5285 10.611-12.961 2.75-3.4325 6.7436-8.1697 8.8748-10.527 4.95-5.42 3.96-7.25-3.93-7.25-2.927 0-12.659-0.65133-21.628-1.4474-8.96-0.79-21.92-1.93-28.8-2.52-6.875-0.59055-17.45-1.502-23.5-2.0254-6.05-0.52341-20-1.6343-31-2.4686-11-0.83435-21.575-1.7459-23.5-2.0257-1.925-0.27976-17.432-1.6581-34.461-3.0629-39.219-3.2355-39.568-3.4506-22.964-14.141 5.8164-3.7446 16.831-10.858 24.478-15.808 7.6464-4.95 18.508-11.925 24.138-15.5 5.6294-3.575 14.527-9.269 19.772-12.653 5.2453-3.3844 13.587-8.7469 18.537-11.917 19.12-12.243 32.351-20.81 47.959-31.051 4.9276-3.2332 10.793-7.0036 13.035-8.3786 7.8378-4.8081 13.719-8.5688 27.369-17.5 7.5652-4.95 17.553-11.435 22.196-14.411 13.026-8.3496 21.706-13.933 30.441-19.582 29.537-19.1 27.335-16.405 22.137-27.093-1.8498-3.8034-4.2851-8.9403-5.4118-11.415-1.1268-2.475-5.4633-11.633-9.6368-20.35-4.1734-8.7177-7.5881-16.008-7.5881-16.2 0-0.19251-2.925-6.419-6.5-13.837-3.575-7.4177-6.5-13.94-6.5-14.493 0-1.4377-4.2925-4.2546-4.9505-3.2488-0.30222 0.46198-4.3745 3.2262-9.0495 6.1426s-12.775 8.0708-18 11.454c-5.225 3.3833-15.125 9.7782-22 14.211-6.875 4.4327-17.675 11.402-24 15.486-13.705 8.8513-22.608 14.567-50.5 32.422-11.55 7.3938-25.725 16.527-31.5 20.295-5.775 3.7685-21.227 13.692-34.339 22.052-13.111 8.36-28.186 18.009-33.5 21.443-25.91 16.742-45.645 29.458-50.631 32.624-5.2084 3.3064-11.035 7.0724-41.347 26.722-6.976 4.5224-16.959 10.969-22.184 14.327-5.225 3.3573-12.758 8.2072-16.74 10.778-3.982 2.5703-14.649 9.3983-23.704 15.173-17.333 11.054-18.28 12.009-16.483 16.618 0.61794 1.5851 3.3524 9.4071 6.0764 17.382 2.7241 7.975 5.8045 16.75 6.8454 19.5 1.0408 2.75 5.7908 16.025 10.555 29.5 4.7646 13.475 9.2646 25.134 10 25.908 1.1189 1.178 15.501 1.5291 88.084 2.1506 102.06 0.8738 94.786-0.2547 82.221 12.748-5.5824 5.777-10.575 11.217-25.856 28.17-4.675 5.1868-14.58 15.976-22.011 23.977-7.4312 8.0005-18.231 19.721-24 26.046-5.7688 6.325-10.98 11.95-11.581 12.5-9.6383 8.8228-33.414 36.914-32.834 38.794 0.37437 1.2133 5.3246 16.381 11.001 33.706 5.6759 17.325 11.319 34.65 12.541 38.5 3.4962 11.019 1.9233 10.479 21.885 7.5178zm-219.5-292.32c9.7616-6.5053 29.677-19.531 38.5-25.18 3.575-2.2891 12.35-7.9996 19.5-12.69s19.75-12.929 28-18.307c8.25-5.3787 17.925-11.687 21.5-14.018 9.9554-6.492 44.516-29.095 53.5-34.99 4.4-2.887 13.175-8.6076 19.5-12.712 12.092-7.8473 28.87-18.774 55.5-36.145 8.8-5.7402 20.5-13.351 26-16.912 5.5-3.5613 17.425-11.323 26.5-17.249 9.075-5.9256 18.75-12.225 21.5-13.999 32.685-21.08 40.5-26.559 40.5-28.394 0-1.8829-1.8128-6.1162-10.74-25.081-2.2007-4.675-5.683-12.325-7.7384-17-9.1054-20.71-16.862-37-17.617-37-0.37195 0-3.3151 1.7239-6.5402 3.8308-3.2252 2.1069-13.202 8.5194-22.17 14.25-8.9686 5.7306-19.994 12.819-24.5 15.753-4.5064 2.9335-15.619 10.092-24.694 15.907-9.075 5.8154-21.675 13.94-28 18.054-6.325 4.1143-13.75 8.927-16.5 10.695-7.2878 4.6848-17.62 11.355-29 18.721-22.715 14.703-27.357 17.686-34.82 22.376-4.3011 2.7028-9.3444 6.0393-11.207 7.4143-1.8628 1.375-9.7434 6.55-17.512 11.5-7.7689 4.95-18.839 12.038-24.599 15.75-15.897 10.245-17.546 9.2754-12.036-7.0757 1.9784-5.8709 6.0708-18.099 9.0942-27.174s5.9941-17.85 6.6017-19.5 5.1107-14.925 10.007-29.5c25.823-76.872 39.781-117.78 40.909-119.88 2.0395-3.8108-0.45045-5.6376-5.0594-3.7118-3.1855 1.331-24.132 7.7473-31.377 9.6115-3.4378 0.88455-30.106 8.796-42 12.46-4.4 1.3554-13.4 4.0142-20 5.9086s-17.625 5.1212-24.5 7.1707-14.525 4.301-17 5.0034c-2.475 0.70239-8.325 2.3801-13 3.7283s-9.4 2.7029-10.5 3.0106c-1.1 0.30766-7.625 2.1987-14.5 4.2023s-13.85 4.0072-15.5 4.4525c-1.65 0.44525-4.2668 1.3126-5.8151 1.9275-8.6633 3.4404-10.517-1.1739-3.6746-9.1486 0.58204-0.67839 5.1821-6.6334 10.222-13.233 17.233-22.566 22.911-30.005 29.769-39 3.7738-4.95 8.7649-11.475 11.091-14.5 3.75-4.8761 15.662-20.46 31.722-41.5 6.707-8.7868 11.807-15.434 17.351-22.613 6.5739-8.5128 21.729-28.467 24.172-31.825 2.7595-3.7942 23.04-30.374 33.62-44.063 4.4635-5.775 8.8704-11.625 9.7931-13s3.6062-4.7985 5.9633-7.6078c4.7748-5.6907 5.3265-8.5685 2.1379-11.152-1.1813-0.95711-5.1188-4.3901-8.75-7.6289s-10.681-9.3138-15.667-13.5c-4.9857-4.1862-15.255-12.94-22.82-19.453-15.695-13.512-13.859-13.28-21.858-2.7663-2.3412 3.0769-7.6318 9.9597-11.757 15.295-4.125 5.3355-10.65 13.798-14.5 18.807-3.85 5.0081-7.9819 10.321-9.1819 11.806-1.2001 1.4852-3.4501 4.3671-5 6.4043-5.0569 6.6467-20.03 26.164-24.475 31.903-4.0585 5.24-6.2162 8.0367-19.206 24.892-2.755 3.575-8.1936 10.55-12.086 15.5-3.8922 4.95-7.7461 9.9529-8.5642 11.118-3.3123 4.7152-14.573 19.311-19.988 25.908-1.925 2.3453-5.75 7.2607-8.5 10.923-2.75 3.6624-7.925 10.41-11.5 14.996-6.9553 8.9208-14.203 18.303-20.226 26.181-2.0494 2.6808-9.0244 11.697-15.5 20.036s-13.893 18.014-16.482 21.5c-2.5895 3.486-9.0452 11.963-14.346 18.838-16.166 20.966-17.875 23.188-19.917 25.891-1.0843 1.435-6.7241 8.6842-12.533 16.109-5.8087 7.425-13.884 18-17.944 23.5-4.0606 5.5-8.4983 11.217-9.8615 12.705-3.5459 3.8703-7.2744-0.59148 40.742 48.755 31.491 32.363 28.073 30.044 37.839 25.674 4.24-1.92 10.64-4.68 14.22-6.15 6.8514-2.82 12.723-5.386 35.5-15.513 7.7-3.4235 21.875-9.5638 31.5-13.645 16.205-6.8712 22.277-9.5043 35.498-15.392 28.963-12.899 46.744-20.007 48.586-19.423 2.719 0.86298-0.38474 11.576-6.5213 22.51-0.78303 1.3951-2.3898 4.9951-3.5707 8-3.1935 8.1265-26.832 62.604-34.6 79.741-1.3158 2.9025-2.395 5.6025-2.3984 6-0.003 0.39746-0.68009 2.0149-1.5038 3.5943-0.82369 1.5794-5.8447 13.054-11.158 25.5-5.313 12.446-10.686 24.844-11.939 27.551-2.769 5.982-2.8815 5.7272 7.9204 17.938 4.5024 5.0898 10.661 12.121 13.686 15.625 36.933 42.781 33.33 40.135 44.5 32.691zm-187.5-369.96c0.825-0.67001 3.2781-3.4682 5.4514-6.2182 7.4514-9.4288 40.96-49.777 60.487-72.832 6.9091-8.1577 13.303-15.965 14.209-17.35 0.90589-1.385 3.3918-4.3856 5.5242-6.6678 3.3993-3.6382 16.599-19.417 18.529-22.15 0.38847-0.55 2.8648-3.5385 5.503-6.641 2.6382-3.1026 6.3717-7.5818 8.2967-9.9538 3.02-3.7213 54.955-66.106 64.439-77.405 1.8466-2.2 5.0909-6.1265 7.2094-8.7256 5.6347-6.9128 43.089-51.791 58.233-69.774 14.123-16.772 14.553-17.66 10.233-21.161-6.9665-5.6461-20.02-15.802-32.801-25.519-3.7472-2.849-11.215-8.5865-16.594-12.75-12.94-10.015-8.6782-12.771-37.786 24.43-4.0883 5.225-8.1921 10.4-9.1196 11.5-0.92749 1.1-3.1775 3.8811-5 6.1802-5.5558 7.0088-22.927 29.023-29.814 37.782-18.934 24.082-45.115 57.23-58.478 74.037-8.3084 10.45-18.157 22.931-21.885 27.735-12.391 15.966-12.951 15.184-12.206-17.058 0.31362-13.573 1.0113-50.777 1.5505-82.677 1.0096-59.733 2.0147-107.48 2.3364-111 0.26808-2.9291-2.3577-2.131-10.686 3.2481-8.3583 5.3984-10.792 6.9344-24.131 15.231-5.5 3.4207-15.175 9.5149-21.5 13.543-6.325 4.0278-16 10.14-21.5 13.582-5.5 3.4426-14.61 9.215-20.244 12.828-5.6342 3.6127-12.159 7.7612-14.5 9.219-2.3408 1.4578-14.606 9.1321-27.256 17.054s-23.496 14.702-24.103 15.067c-6.5956 3.9717-5.4756-1.2598 8.0867-37.772 3.6773-9.9 8.6955-23.625 11.151-30.5 2.456-6.875 4.9586-13.625 5.5613-15 0.60271-1.375 2.8885-7.45 5.0795-13.5 4.4666-12.334 6.8208-18.582 8.6656-23 0.689-1.65 1.839-4.8 2.5555-7 0.71654-2.2 2.9793-8.5 5.0284-14s4.9656-13.375 6.4813-17.5c1.5156-4.125 5.3298-14.475 8.4758-23 3.1461-8.525 7.2021-19.55 9.0134-24.5s4.4728-12.11 5.9146-15.912c3.3203-8.7548 3.0815-9.357-5.6676-14.292-3.99-2.25-14-8.008-22.25-12.799s-18.6-10.76-23-13.265c-4.4-2.504-9.21-5.442-10.68-6.529-4.84-3.572-5.65-2.457-14.08 19.293-2.4514 6.325-12.889 32.425-23.196 58-10.306 25.575-20.019 49.875-21.585 54-1.5653 4.125-4.2749 10.875-6.0212 15s-3.9574 9.525-4.9134 12c-0.95603 2.475-12.894 32.175-26.529 66-13.641 33.82-26.917 66.9-29.508 73.5-2.592 6.6-11.802 29.67-20.468 51.26-13.709 34.16-15.578 39.47-14.39 40.9 1.583 1.91 13.298 10.68 33.866 25.34 7.975 5.6858 15.429 11.161 16.564 12.167 2.9994 2.6572 4.6902 2.292 9.5722-2.0672 5.1618-4.6091 12.592-11.007 19.432-16.731 10.184-8.5236 24.027-20.181 34.88-29.372 6.1696-5.225 17.93-15.106 26.134-21.958 8.2043-6.8519 19.83-16.752 25.835-22 6.0049-5.2481 12.14-10.442 13.633-11.542 3.3182-2.4444 13.364-10.906 21.449-18.068 16.637-14.736 20.022-16.82 21.405-13.181 0.97826 2.573 1.8028-3.5411-14.463 107.25-3.0685 20.9-6.012 41.15-6.541 45-0.52901 3.85-2.9122 20.275-5.2959 36.5-4.889 33.277-5.0712 31.455 3.625 36.257 3.4484 1.9045 8.0697 4.4962 10.27 5.7594 2.2 1.2632 4.9 2.7957 6 3.4057 5.3936 2.9908 44.506 25.126 48 27.165 4.5926 2.6802 5.4355 2.8072 7.5 1.1306z"/>
</svg>
